<?xml version="1.0" encoding="UTF-8"?>
<svg version="1.1" viewBox="0 0 128.14 384.46" xmlns="http://www.w3.org/2000/svg">
 <g transform="translate(-196.49 -379.54)">
  <path d="m248.5 400.69 0.21875 10.281c0.54518 25.273 0.51927 28.264-0.40625 28.875-1.7776 1.1737-2.2558 5.2107-0.6875 5.8125 1.7237 0.66146 1.3682 7.4052-0.5 9.6562-0.64406 0.77605-0.86544 2.249-0.5 3.2812 0.54425 1.5373 0.41602 1.6489-0.6875 0.625-2.1421-1.9875-5.3877-1.4356-7.75 1.2812-2.3309 2.6808-2.814 4.4688-1.1875 4.4688 0.55 0 1 1.325 1 2.9375 0 2.538 0.34925 2.8889 2.5312 2.6562 1.3863-0.1478 3.0738-0.96798 3.75-1.8438 0.67621-0.87577 2.3438-1.7298 3.7188-1.9062 1.7066-0.21895 2.5944-1.0578 2.8125-2.5938 0.17575-1.2375-0.16175-2.25-0.75-2.25s-1.0625-0.37002-1.0625-0.84375c0-1.1171 4.8428-0.20303 5.625 1.0625 0.32894 0.53226 0.11207 1.4817-0.5 2.0938-0.61208 0.61208-1.125 2.3884-1.125 3.9688 0 2.221-0.39732 2.7754-1.75 2.4688-0.9625-0.21821-2.9783 0.22197-4.5 0.96875-2.3229 1.1399-2.6231 1.6811-1.75 3.3125 0.82938 1.5497 0.74684 1.8175-0.40625 1.375-0.7952-0.30515-1.6685-1.1863-1.9688-1.9688-0.79279-2.066-2.182-1.7555-5.0625 1.125-2.7822 2.7822-3.1617 5.4291-1.4375 10.375 0.83231 2.3876 0.83231 3.5114 0 4.3438-1.5268 1.5268-1.3997 4.9626 0.25 7.2188 1.1557 1.5806 1.1185 2.3138-0.25 4.9375-0.88446 1.6957-1.9772 3.3381-2.4062 3.6562-0.42907 0.31811-0.11756 1.8545 0.6875 3.4062 1.7528 3.3786 1.3102 8.5446-0.84375 9.75-2.1274 1.1905-1.955 3.4514 0.4375 5.5 2.2202 1.901 2.6947 7.123 0.9375 10.406-0.81816 1.5288-0.69468 2.5665 0.53125 4.4375 1.5254 2.3281 1.4658 2.554-0.9375 4.7812l-2.5312 2.3438 2.4688 2.6562c1.3458 1.4522 2.9237 2.625 3.5 2.625 2.0419 0 0.99659 1.8729-1.2188 2.1875-1.5131 0.21489-2.25 1.0019-2.25 2.4062 0 1.1486-0.53812 2.7693-1.2188 3.5938-1.0141 1.2284-0.81741 1.8921 1.0938 3.6875 2.2204 2.086 2.752 2.1318 11.062 1.1875 4.8008-0.54551 10.089-1.6559 11.781-2.5 3.295-1.6437 5.3249-0.90166 6.6562 2.5 0.35098 0.89674 3.1 3.6981 6.125 6.2188s5.725 4.6033 6 4.625 1.3694-0.62964 2.4375-1.4375c1.8825-1.4239 1.8442-1.5303-1.25-4.0938-1.7556-1.4544-3.1875-3.2548-3.1875-4 0-0.74524-1.0125-1.3888-2.25-1.4062-2.4989-0.0353-6.462-2.6005-5.5-3.5625 0.33797-0.33798 3.3619-0.62465 6.7188-0.65625 6.1564-0.058 9.0077-1.4221 5.125-2.4375-3.3382-0.87295-2.4904-2.6231 0.9375-1.9375 2.2295 0.4459 3.2169 0.17617 3.6562-0.96875 0.70806-1.8452-1.3745-4.1003-4.1875-4.5625-1.556-0.2557-1.9353 0.1557-1.75 1.9062 0.29379 2.775-0.0359 2.7994-5.625 0.0937-4.6074-2.2304-15.709-3.5857-14.594-1.7812 1.2699 2.0547-2.696 2.162-4.5938 0.125-2.5313-2.717-2.4616-3.5528 0.25-2.8438 1.2089 0.31613 2.7739 0.10791 3.4688-0.46875 0.88612-0.73541 2.352-0.68672 4.9062 0.15625 3.0894 1.0196 3.8912 0.9526 5.25-0.40625 1.4689-1.4689 1.4487-1.707-0.34375-3.0625-1.075-0.81288-2.6986-1.5138-3.5938-1.5312-0.89515-0.0175-2.2203-0.72958-2.9375-1.5938-0.71719-0.86416-2.6602-2.1255-4.3438-2.8125l-3.0625-1.25 4.875-1.25c2.898-0.72972 5.248-0.84575 5.7812-0.3125 1.0026 1.0026 8.8125-0.74266 8.8125-1.9688 0-0.4143-1.9125-1.2714-4.25-1.9062-2.3375-0.6349-4.8125-1.3051-5.5-1.5-0.6875-0.19493-1.25-0.77283-1.25-1.2812 0-1.3642 3.4008-2.4539 3.8125-1.2188 0.19382 0.58148 1.0329 1.0625 1.8438 1.0625s3.4746 1.125 5.9375 2.5 5.132 2.5 5.9375 2.5c2.3759 0 1.6734-2.9761-0.9375-3.9688-1.3216-0.50246-2.7016-1.3848-3.0625-1.9688-0.36088-0.58392-1.9052-1.0625-3.4375-1.0625s-3.5983-0.9-4.5938-2c-2.2664-2.5043-3.5911-2.5043-8.5 0-2.1562 1.1-4.6218 2-5.4688 2-2.3211 0-1.8391-2.743 0.71875-4.125 2.5479-1.3766 11.731-2.0777 13.25-1 1.7032 1.2086 9.7997 0.74613 10.25-0.59375 0.62135-1.8489-4.6387-3.6232-6.4062-2.1562-1.1092 0.92054-1.9212 0.6811-3.8438-1.125-1.3419-1.2607-2.2236-2.6189-1.9688-3.0312 0.82232-1.3306 8.836 1.0836 12.25 3.6875 2.6678 2.0348 3.6102 2.2843 4.7812 1.3125 1.9679-1.6332 1.8165-3.6106-0.3125-4.3438-0.9625-0.33144-3.2855-1.5132-5.1562-2.6562-2.5984-1.5876-3.5661-1.7986-4.1562-0.84375-0.61373 0.99306-1.0984 1.0129-2.2812 0.0313-1.1885-0.9864-2.1711-0.96836-4.9375 0.1875-1.9059 0.79634-3.7807 1.9549-4.1562 2.5625-0.43883 0.71004-1.2892 0.79983-2.375 0.21875-0.92912-0.49725-2.1375-0.88795-2.6875-0.84375-0.55 0.0441-1.1345-0.66967-1.3125-1.5938-0.21512-1.117 0.28763-1.6374 1.5-1.5312 5.011 0.43881 6.4789-0.11905 5.8125-2.2188-0.60815-1.9161-0.40991-2.008 3.1562-1.3125 2.1103 0.41159 4.5188 0.69255 5.3438 0.59375 4.4763-0.53589 7.5449-0.97947 7.875-1.0938 0.92087-0.31882-2.2796-3.125-3.5625-3.125-0.78991 0-3.1821-1.3817-5.3125-3.0938-3.4319-2.7579-4.3903-3.0582-8.4375-2.5625-2.601 0.31855-4.5625 0.16404-4.5625-0.375 0-0.87468 1.4488-1.3469 3.25-1.0625 1.6699 0.26367 0.60623-2.8904-1.4688-4.3438-2.6182-1.8339-2.1719-1.9231 2-0.46875 1.688 0.58843 3.3232 1.7134 3.625 2.5s1.0614 1.4062 1.6875 1.4062c0.62607 0 0.87909-0.675 0.5625-1.5-0.72203-1.8816-0.27036-1.8549 3.4375 0.0625 2.7007 1.3966 3.1095 1.3905 4.5625-0.0625 1.4713-1.4713 1.4266-1.7225-0.53125-3.0938-1.1735-0.82197-2.125-1.8937-2.125-2.375 0-1.5461 5.2293-0.39304 6.2188 1.375 0.75266 1.3449 1.257 1.4591 2.375 0.53125 2.125-1.7636 1.7235-3.4834-1.125-4.7812-3.7847-1.7244-6.5681-1.4002-9.1562 1.0312-1.273 1.1959-2.3125 1.6459-2.3125 1 0-0.64587-1.3012-1.1875-2.9062-1.1875-3.5912 0-6.0938-0.89645-6.0938-2.1875 0-0.56319 1.2701-0.66806 3.0312-0.28125 1.6885 0.37085 3.6172 0.20203 4.3125-0.375 1.0277-0.85289 4.2711-1.5269 9.9062-2.0625 1.6385-0.15573 0.5477-1.6862-2.6875-3.7812-2.9393-1.9034-3.5516-2.0057-4.5938-0.75-0.66368 0.79968-1.7412 1.4375-2.375 1.4375-1.9391 0-9.7804-9.0174-9.1875-10.562 0.74509-1.9417 3.5925-1.8031 5.0938 0.25 1.1266 1.5407 1.3317 1.5079 2.4062-0.5 1.0373-1.9382 0.86425-2.3124-1.4375-3.1875-1.4504-0.55143-2.3064-1.4657-1.9375-2.0625 0.36373-0.58855 1.2795-0.81972 2.0312-0.53125 2.2055 0.84633 2.7909-1.355 0.90625-3.4375-1.4689-1.6231-1.5408-2.1643-0.40625-3.5312 1.1375-1.3706 1.1008-1.7541-0.34375-2.5625-0.93652-0.5241-1.7188-1.6662-1.7188-2.5312 0-1.2957-0.27557-1.3546-1.5312-0.3125-1.953 1.6208-2.2028 1.2866-2.625-3.4062-0.35318-3.9256 0.24262-4.7143 4.4688-6.0312 2.2548-0.70265 1.2537-2.5938-1.375-2.5938-1.6876 0-1.9375-0.71619-1.9375-5.5312 0-5.1616 0.15288-5.5183 2.25-5.25 3.009 0.38495 3.4927-1.5453 0.5625-2.25-1.7077-0.41071-2.2388-1.1453-2-2.8125 0.17763-1.2399-0.19209-2.9023-0.84375-3.6875-1.6107-1.9408-0.48566-4.4688 2-4.4688 2.6227 0 2.5563-0.38122-0.5625-3.5-2.0949-2.0949-2.3546-2.8509-1.375-4.0312 0.66548-0.80186 2.031-1.4688 3.0312-1.4688 2.8739 0 3.1884-1.7158 0.4375-2.4062-1.3712-0.34415-2.5-1.0542-2.5-1.5938 0-0.0982 0.0339-0.19832 0.0625-0.28125zm17.312 69.719c-0.45401 0.0647-0.66304 0.32522-0.90625 0.71875-1.1125 1.8-0.15378 2.8438 2.5938 2.8438 1.3101 0 2.6601 0.45 3 1s1.4894 1 2.5312 1c1.0419 0 2.6993 1.111 3.6875 2.4688 1.9846 2.7268 3.8014 3.2334 4.5625 1.25 0.49488-1.2896-1.7237-5.1177-3.0625-5.2812-0.38882-0.0475-1.6188-0.45623-2.7188-0.875-6.484-2.4685-8.6887-3.2674-9.6875-3.125zm11.25 1.1562c0.22391 0.0864 0.44254 0.0919 0.625 0zm-26.719 4.875c0.30842-0.0101 0.6368 0.1368 0.96875 0.46875 0.78284 0.78284 0.78284 1.3734 0 2.1562-0.78285 0.78285-1.2662 0.78285-1.75 0-0.78022-1.2624-0.14402-2.5947 0.78125-2.625zm-3.8438 8.1562c0.55143 0.0149 1.0978 0.60379 1.3125 1.7188 0.19702 1.023-0.30911 1.6562-1.3125 1.6562-1.03 0-1.5233-0.65539-1.3125-1.75 0.2125-1.1034 0.76107-1.6399 1.3125-1.625zm-2.625 12.625c0.3808-0.0481 0.70981-9e-3 0.875 0.15625 0.24489 0.2449 0.27987 1.0663 0.0937 1.8125-0.35312 1.416-3.8437 1.2439-3.8437-0.1875 0-0.71278 1.7326-1.6369 2.875-1.7812zm26.656 0.1875c-1.4732-0.01136-2.5312 0.19686-2.5312 0.53125 0 1.3605 2.8493 3.247 3.9062 2.5938 0.5465-0.33775 1.4968 0.29085 2.0938 1.4062 1.2248 2.2885 6 2.8369 6 0.6875 0-2.3703-3.6456-4.7379-7.875-5.125-0.56489-0.0517-1.1027-0.09-1.5938-0.0937zm-22.156 5.5625c2.282 0 7.7049 2.5764 6.9688 3.3125-0.77233 0.77233-0.68169 0.79116-5.0938-0.65625-3.2945-1.0808-4.4097-2.6562-1.875-2.6562zm-6.5 10c1.22 0 2.125 0.63782 2.125 1.5 0 0.825-0.39234 1.5-0.875 1.5-0.48265 0-1.4403-0.675-2.125-1.5-1.0401-1.2532-0.89824-1.5 0.875-1.5zm38 10.562c-1.0291-0.034-2.1548 0.22986-3.0312 0.84375-2.0528 1.4378-1.4663 2.5938 1.3125 2.5938 1.0083 0 1.8438 0.45 1.8438 1s0.45 1 1 1 1-0.40124 1-0.90625c0-0.50502 0.25639-1.5773 0.5625-2.375 0.47975-1.2502-0.97239-2.0996-2.6875-2.1562zm-37.5 0.90625c0.50974-0.0323 0.625 0.41583 0.625 1.5 0 1.1194-0.64496 2.0312-1.4375 2.0312-2.3911 0-2.7572-1.8109-0.59375-2.9688 0.64821-0.34691 1.1004-0.54312 1.4062-0.5625zm24.625 12.562c-0.60951 9e-3 -1.2307 0.26181-2.0625 0.78125-1.5319 0.95667-2.4553 1.0339-3.4375 0.21875-0.84804-0.70381-1.5523-0.7483-1.9375-0.125-0.33294 0.53871-9e-3 1.3336 0.6875 1.7812 2.8406 1.8256 6.0412 3.3125 7.125 3.3125 0.63321 0 2.7398 0.86906 4.6562 1.9375 4.2949 2.3944 4.4323 2.4138 5.9688 0.5625 0.68469-0.825 1.8097-1.5 2.5-1.5 2.6703 0 3.4296-2.452 1.5312-4.9688-1.5607-2.0691-2.0911-2.2112-3.4375-1.0938-0.87081 0.72271-1.3327 1.6998-1.0312 2.1875 0.3014 0.48768-0.14254 0.875-1 0.875s-1.5625-0.45-1.5625-1-0.89254-1-2-1-2.9075-0.53645-4-1.2188c-0.79497-0.49647-1.3905-0.75861-2-0.75zm-24.562 0.96875c0.79254 0 1.7226 0.45 2.0625 1s-0.30504 1-1.4375 1-2.0625-0.45-2.0625-1 0.64496-1 1.4375-1zm18.156 16.094c0.30184 0.0112 0.75746 0.0574 1.3438 0.125 1.3319 0.15367 2.5861 0.84375 2.8125 1.5312 0.56018 1.701-0.96199 1.5707-3.3125-0.28125-1.4098-1.1108-1.7493-1.4086-0.84375-1.375zm7.8438 1.9062c0.24254 0 0.72258 0.45 1.0625 1s0.14496 1-0.4375 1-1.0625-0.45-1.0625-1 0.19496-1 0.4375-1zm9.5312 7.4688c-1.5747 0.15536-2.3064 1.242-1.6875 2.8438 0.67801 1.7548 6.4339 1.907 7.0938 0.1875 0.62031-1.6165 0.19357-1.947-3.5625-2.8438-0.69363-0.16561-1.3188-0.23929-1.8438-0.1875zm-18.219 1.2812c-0.41177 0.1375-1.4131 0.25-2.2188 0.25s-1.953 0.95479-2.5625 2.0938c-0.93586 1.7487-0.67791 2.423 1.5938 4.375 2.4092 2.0702 2.7278 3.1416 3.0938 10.188 0.2794 5.3788 0.86711 8.2097 1.875 8.9688 0.81083 0.61064 1.4688 2.2405 1.4688 3.625s0.675 3.0653 1.5 3.75 1.5 2.1335 1.5 3.2188 0.84716 3.1651 1.875 4.625c1.0278 1.4599 2.1632 3.6258 2.5312 4.8125 0.3681 1.1867 1.3209 2.4102 2.125 2.7188 0.80406 0.30855 1.4688 1.1805 1.4688 1.9375s0.86072 2.1476 1.9062 3.0938c1.0455 0.9462 2.1663 3.1901 2.5 4.9688 0.38122 2.0321 2.3242 4.8908 5.2188 7.6875 2.5336 2.4479 5.2296 5.7875 6 7.4375s1.8078 3.675 2.3125 4.5c0.50465 0.825 2.3725 5.1 4.125 9.5s3.9026 9.35 4.7812 11 1.6705 3.9 1.7812 5c0.11074 1.1 0.66495 3.7706 1.2188 5.9062 0.59118 2.2798 0.66167 4.7956 0.15625 6.125-0.47346 1.2453-0.62674 2.4983-0.34375 2.7812 0.91031 0.91031 1.1846 6.1546 0.375 7.1875-0.43111 0.55-1.1059 2.575-1.5 4.5-0.39408 1.925-2.0306 5.5706-3.625 8.0938s-2.9062 5.1562-2.9062 5.8438c0 1.3254-8.9078 9.9638-10.344 10.031-0.4653 0.0218-4.1622 1.6062-8.2188 3.5312s-8.6631 3.5-10.219 3.5-3.285 0.50371-3.875 1.0938c-0.73134 0.73134-2.3256 0.74506-4.9688 0.0937-4.303-1.0603-7.8871-0.94786-10.75 0.3125-1.2957 0.57042-2.244 0.369-3-0.65625-0.60796-0.82452-2.1533-2.0513-3.4062-2.7188-1.2529-0.66743-1.9927-1.6743-1.6562-2.2188 0.37265-0.60296-0.30657-0.73728-1.75-0.375-1.7705 0.44436-3.0504-0.12332-5.0312-2.2188-5.2383-5.5412-5.8959-5.8573-7.5312-3.7188-1.369 1.7902-1.4388 1.7049-1.0312-1.3438 0.25698-1.9225-0.0655-3.7238-0.8125-4.3438-0.69862-0.57978-1.0437-1.6722-0.75-2.4375 0.29366-0.76526-0.40925-2.7242-1.5625-4.3438-1.1668-1.6386-1.8111-3.639-1.4688-4.5312 0.33843-0.88194 0.0539-2.2758-0.625-3.0938-0.90801-1.0941-0.93825-1.8326-0.125-2.8125 0.81634-0.98364 0.73312-1.8118-0.25-3.1562-1.4824-2.0274-3.625-1.2847-3.625 1.25 0 1.2356-0.29138 1.3336-1.1562 0.46875-0.86488-0.86487-0.69675-1.8282 0.6875-3.9375 1.0112-1.5407 1.9786-3.9375 2.125-5.3125s1.1173-3.1872 2.1562-4.0312c2.4742-2.0102 3.1458-4.0519 2.0312-6.2188-1.109-2.156 1.0742-9.4238 5.8125-19.25 1.8565-3.85 3.383-8.3176 3.375-9.9375-9e-3 -1.8338 0.95436-3.9764 2.5938-5.6875 1.6472-1.7193 2.7595-4.137 2.9688-6.4688 0.18395-2.05 0.90432-4.0739 1.5938-4.5s0.94283-1.0884 0.5625-1.4688c-0.38032-0.38032 0.19546-1.9439 1.2812-3.4688 1.0858-1.5249 2.0954-4.0099 2.2188-5.5 0.12333-1.4901 0.76912-2.919 1.4688-3.1875 0.69964-0.26848 1.3003-1.4463 1.3125-2.625 0.0122-1.1786 0.89321-3.2812 1.9688-4.6562s1.9566-3.2994 1.9688-4.2812 0.75259-2.856 1.625-4.1875c0.8724-1.3315 1.3001-2.8701 0.96875-3.4062-0.33138-0.53618-0.12147-1.2483 0.4375-1.5938s1-1.6554 1-2.9062 0.3375-2.6125 0.75-3.0312 0.75-2.4271 0.75-4.4375c0-2.9265 0.34891-3.579 1.75-3.3438 2.4622 0.41342 2.1938-1.2298-0.75-4.4062-2.4388-2.6316-2.5819-2.6664-3.9375-0.8125-2.1325 2.9163-2.9724 0.95312-1.1562-2.6875 0.88239-1.7688 1.5938-3.372 1.5938-3.5625 0-1.0111-2.3787-0.0332-6.0938 2.5-4.0683 2.774-4.2035 3.0212-4.5 9.0938-0.16743 3.4287-0.72613 6.7638-1.25 7.4062s-1.6215 3.4196-2.4375 6.1875c-0.81596 2.7679-2.4286 6.8261-3.5938 9s-2.125 4.7181-2.125 5.6562c0 0.93819-0.45 1.9726-1 2.3125s-1 1.8819-1 3.4062-1.1273 4.9818-2.5 7.6875-2.498 5.4952-2.5 6.1875-1.35 3.0972-3 5.375-3 4.7987-3 5.5938c0 0.79507-0.79893 2.6338-1.7812 4.0938-3.2435 4.8205-4.363 7.9947-5.5938 15.875-0.31183 1.9966-1.4367 5.3536-3.625 10.781-0.91661 2.2735-2.6791 9.5731-3.3438 13.906-0.24554 1.6008-0.0922 4.0758 0.34375 5.5 0.4359 1.4242 1.3653 6.5691 2.0625 11.406s1.6675 9.0297 2.125 9.3125 0.8125 1.384 0.8125 2.4688 0.675 2.2459 1.5 2.5625c0.825 0.31659 1.5 1.0217 1.5 1.5938s1.575 2.9633 3.5 5.3125 3.5 4.7801 3.5 5.375c0 0.59493 0.39856 1.0625 0.875 1.0625s3.2889 2.2425 6.25 4.9688c2.9611 2.7262 6.7118 5.2563 8.3438 5.625 1.6319 0.36872 3.6569 1.0016 4.5 1.4062 0.84305 0.40468 4.2312 1.6452 7.5312 2.75s6.0504 2.0544 6.125 2.125 1.4246-0.52214 3-1.3438 3.9092-1.497 5.1562-1.5c3.775-0.0103 21.439-4.1224 23.656-5.5 1.1403-0.70854 3.1875-1.5499 4.5625-1.875 2.6787-0.63326 15.336-12.237 18.562-17.031 7.0968-10.543 8.2679-13.078 8.6875-18.625 0.18756-2.4795 0.6368-4.9748 1-5.5625 0.60173-0.97362 0.41287-4.4776-0.875-17.438-0.24595-2.475-0.55429-6.3-0.71875-8.5-0.37212-4.9779-1.2274-7.0152-4.8125-11.625-1.5586-2.0041-2.8438-4.094-2.8438-4.625 0-0.53092-1.8242-3.0508-4.0625-5.5938s-3.8075-5.0456-3.4688-5.5938c0.8508-1.3766-1.2347-5.0625-2.875-5.0625-0.7383 0-1.9091-0.675-2.5938-1.5-1.0528-1.2685-0.84268-1.5 1.375-1.5 1.4423 0 2.625-0.45 2.625-1s-0.63892-1-1.4375-1c-1.5653 0-7.5414-7.9836-7.5938-10.156-0.0443-1.8371-2.4406-4.8438-3.875-4.8438-0.65493 0-1.8704-1.5756-2.6875-3.5312-1.2007-2.8738-1.8635-3.4569-3.5-2.9375-1.8538 0.58839-1.9667 0.35178-1.3438-2.9688 0.50337-2.6832 0.24667-4.0945-0.96875-5.4375-1.0116-1.1178-1.3671-2.5367-0.9375-3.6562 0.54064-1.4089 0.33451-1.6756-0.9375-1.1875-2.0438 0.78427-3.0732-0.76613-3.4688-5.2812-0.16863-1.925-0.40886-4.577-0.53125-5.9062-0.2461-2.6727-2.7188-4.1783-2.7188-1.6562 0 1.9552-1.585 2.0832-2.3125 0.1875-0.29411-0.76645 0.55122-2.4126 1.875-3.6562l2.4062-2.2812-2.6875-2.4688c-1.4755-1.3674-3.8182-2.8115-5.2188-3.1875-1.6093-0.43209-2.5617-1.3769-2.5625-2.5938-7.2e-4 -1.059-0.33822-1.825-0.75-1.6875zm-10 19.25c1.22 0 1.2625 0.28005 0.25 1.5-0.68469 0.825-1.925 1.5-2.75 1.5-1.22 0-1.2625-0.28005-0.25-1.5 0.68469-0.825 1.925-1.5 2.75-1.5zm-33.844 90.125c0.3046-0.0317 0.5977 0.0665 0.84375 0.3125 0.34317 0.34317-0.13274 1.3827-1.0625 2.3125-1.5589 1.5589-1.6875 1.5577-1.6875 0.0313 0-1.3672 0.99244-2.5611 1.9062-2.6562z"/>
 </g>
</svg>
